<svg xmlns="http://www.w3.org/2000/svg" xmlns:xlink="http://www.w3.org/1999/xlink" width="76.379" height="68.362" viewBox="0 0 76.379 68.362"><defs><clipPath id="a"><rect width="76.379" height="68.362" fill="none"/></clipPath></defs><g clip-path="url(#a)"><path d="M88.925,76.693l-7.835.009-.037-27.5a16.109,16.109,0,0,0-.969-5.987A7.057,7.057,0,0,0,77.22,39.7c3,.584,4.918,1.815,5.978,3.368,1.078,1.573,1.8,4.417,1.8,8.514V67.571c0,2.72.372,4.681,1.131,5.848a4.873,4.873,0,0,0,2.8,1.853c.008-6.141.005-13.189-.031-19.8-.05-9.235.538-17.7-2.223-20.747a7.865,7.865,0,0,0-4.3-2.16v1.855c-2.4-2.132-.345-5.661,2.735-5.349,3.74-3.228,10.049-1.39,12.746,2.272,2.115,2.206,2.758,7.05,2.757,12.584L100.6,75.309a4.862,4.862,0,0,0,2.8-1.855c.76-1.165,1.13-3.126,1.13-5.848V51.62c0-4.1.531-6.961,1.608-8.533,1.018-1.493,3.008-2.547,5.819-3.144v.166a7.632,7.632,0,0,0-2.705,3.121,17.014,17.014,0,0,0-.778,6.006l-.044,27.488H100.6l0,11.579H96.665c.019-7.519.008-47.2,0-47.195-.28-5.956-1.352-9.39-5.549-10.522a6.973,6.973,0,0,0-4.827.46c5.293,1.395,6.532,6.058,6.523,15.414L92.77,88.3H88.905c0-2.807.014-6.894.02-11.608" transform="translate(-56.196 -19.939)" fill="#fff"/><path d="M213.915,86.694a12.143,12.143,0,0,0,9.068-3.462c2.335-2.3,3.5-6.617,3.5-9.839a11.217,11.217,0,0,0-2.861-7.548,9.244,9.244,0,0,0-7-3.35c-.2-.01-.354-.034-.53-.033q-9.764.082-9.774,11.008l-.054,28.814,10.481.036s-.136-1.09-.163-1.093c-5.045-.618-6.115-3.213-6.218-7.073l-.048-7.982v.043a14.275,14.275,0,0,0,3.6.479m-3.67-12.414a10.522,10.522,0,0,1,1.536-6.111c2.185-2.938,6.141-2.626,8.4-.114a7.513,7.513,0,0,1,1.955,5.229c0,2.264-.783,5.828-2.34,7.594a8.361,8.361,0,0,1-6.516,2.578,24.947,24.947,0,0,1-2.986-.234Z" transform="translate(-150.102 -45.456)" fill="#fff"/><path d="M16.483,78.567l-.038-6.441c-.56-4.688-3.686-6.508-9.238-5.813-3.828.478-7.434,4.4-7.2,3.6.8-2.721,1.1-3.921,2.068-5.08,1.679-2,5.045-2.264,6.5-2.336,6.982-.344,11.962,3.081,12.391,10.638l-.027,29.112-4.392,0,.012-1.449a10.627,10.627,0,0,1-5.854,1.523c-.177,0-.332-.022-.53-.033a9.244,9.244,0,0,1-7-3.349A11.217,11.217,0,0,1,.314,91.39c0-3.222,1.163-7.539,3.5-9.841a12.152,12.152,0,0,1,9.069-3.461,14.209,14.209,0,0,1,3.6.479m.018,2.994a24.724,24.724,0,0,0-2.986-.233A8.366,8.366,0,0,0,7,83.905c-2.793,3.171-3.321,9.59-.386,12.823,2.26,2.513,6.216,2.824,8.4-.114A10.361,10.361,0,0,0,16.551,90.7v-.481Z" transform="translate(0 -45.462)" fill="#fff"/><path d="M141.261,7.239c.058-.212.121-.46.2-.783.4-1.621.123-4.962-1.326-6.456a10.172,10.172,0,0,1,.056,5.641,9.93,9.93,0,0,1-.526,1.57,10.923,10.923,0,0,1,1.377.672,9.293,9.293,0,0,1,1.282.894c.008-.05.018-.1.022-.122a10.145,10.145,0,0,1,.314-1.143,9.258,9.258,0,0,1,3.13-4.448,6.362,6.362,0,0,0-4.53,4.175" transform="translate(-101.64)" fill="#fff" fill-rule="evenodd"/><path d="M118.761,5.009c-.045.184-.081.335-.111.463a6.54,6.54,0,0,0-3.027-3.939,9.638,9.638,0,0,1,1.845,4.892,8.758,8.758,0,0,1,1.231,0,10.447,10.447,0,0,1,1.285.158,10.206,10.206,0,0,1,.261-1.634A9.654,9.654,0,0,1,122.638,0c-1.952.563-3.522,3.555-3.878,5.009" transform="translate(-84.143)" fill="#fff" fill-rule="evenodd"/></g></svg>