<svg xmlns="http://www.w3.org/2000/svg" xmlns:xlink="http://www.w3.org/1999/xlink" width="252.917" height="196.303" viewBox="0 0 252.917 196.303"><defs><clipPath id="a"><rect width="252.917" height="196.303" fill="none"/></clipPath></defs><rect width="252.917" height="196.303" fill="#134a28"/><g clip-path="url(#a)"><path d="M575.7,329.172l8.5-19.093h.658l8.174,19.093c-.223,0-.749-.037-1.586-.1-.141.018-.348.036-.63.051s-.5.036-.645.054q-1.24-3.657-2.891-7.4h-6.893c-.409,1.03-.776,1.97-1.108,2.811s-.639,1.647-.916,2.419-.508,1.494-.7,2.175c-.109-.018-.273-.037-.5-.054s-.391-.033-.513-.051c-.1.014-.268.027-.49.051a4.121,4.121,0,0,0-.459.054m5.2-8.522h5.966l-3.056-6.947Z" transform="translate(-362.625 -195.313)" fill="#fff"/><path d="M532.225,329.875v-18.68h5.966a7.626,7.626,0,0,1,4.482,1.035,3.638,3.638,0,0,1,1.4,3.128,4.144,4.144,0,0,1-.931,2.775,6.011,6.011,0,0,1-2.2,1.644,9.908,9.908,0,0,1-2.5.728q1.058,1.318,1.929,2.423c.581.74,1.317,1.666,2.2,2.788s1.462,1.835,1.706,2.148.79.98,1.626,2.011c-.232-.018-.545-.037-.944-.054s-.713-.033-.939-.051c-.131.018-.341.036-.618.051s-.491.036-.635.054q-4.488-6.232-7.083-9.148h-1.062v9.148c-.141-.018-.346-.037-.613-.054s-.469-.033-.61-.051c-.131.018-.322.036-.58.051s-.455.036-.591.054m2.393-10.153c.327.033.772.051,1.334.051a7.659,7.659,0,0,0,3.488-.659,3.771,3.771,0,0,0,1.738-1.567,3.948,3.948,0,0,0,.468-1.833,2.9,2.9,0,0,0-1.4-2.716,6.7,6.7,0,0,0-3.446-.821q-.395,0-1.143.012c-.5.011-.839.016-1.035.016Z" transform="translate(-335.239 -196.016)" fill="#fff"/><path d="M475.522,322.637V311.194c.129.018.313.037.541.05s.407.036.52.055c.613-.069,1.052-.106,1.33-.106v11.437a9.555,9.555,0,0,0,.441,2.937,4.7,4.7,0,0,0,1.785,2.367,6.265,6.265,0,0,0,3.778.989,6.127,6.127,0,0,0,2.879-.612,4.843,4.843,0,0,0,1.83-1.627,6.748,6.748,0,0,0,.935-2.2,11.269,11.269,0,0,0,.268-2.475V311.194l.363.046a3.122,3.122,0,0,1,.372.06c.1-.019.237-.037.412-.055s.311-.038.4-.05v11.142a8.931,8.931,0,0,1-.954,4.281,6.236,6.236,0,0,1-2.76,2.686,9.539,9.539,0,0,1-4.318.908,9.374,9.374,0,0,1-4.645-.99,5.56,5.56,0,0,1-2.457-2.669,9.864,9.864,0,0,1-.721-3.914" transform="translate(-299.523 -196.015)" fill="#fff"/><path d="M434.557,329.938v-17.4h-.686a47.9,47.9,0,0,0-5.253.326c.019-.253.028-.516.028-.789,0-.331-.009-.621-.028-.876H442.7c-.027.163-.045.327-.064.486a3.8,3.8,0,0,1-.05.39,3.211,3.211,0,0,1,.05.327c.014.122.037.282.064.461a46.927,46.927,0,0,0-5.753-.326v17.4c-.145-.023-.35-.041-.614-.059s-.463-.038-.609-.055c-.113.017-.295.036-.558.055s-.462.041-.613.059" transform="translate(-269.979 -196.016)" fill="#fff"/><path d="M382.057,329.172l8.5-19.093h.658l8.173,19.093c-.222,0-.75-.037-1.584-.1-.14.018-.35.036-.631.051s-.494.036-.643.054q-1.24-3.657-2.892-7.4h-6.893c-.41,1.03-.777,1.97-1.109,2.811s-.64,1.647-.916,2.419-.51,1.494-.7,2.175c-.11-.018-.272-.037-.5-.054s-.389-.033-.512-.051c-.105.014-.268.027-.491.051a4.132,4.132,0,0,0-.459.054m5.2-8.522h5.966l-3.055-6.947Z" transform="translate(-240.651 -195.313)" fill="#fff"/><path d="M337.93,329.873v-18.68c.091,0,.463.037,1.117.106.131-.019.341-.037.627-.055s.5-.038.65-.05v8.464a.194.194,0,0,0,.141.063q.443,0,2.317-1.96l6.376-6.566a5.451,5.451,0,0,1,1.007.106c.658-.069,1.031-.106,1.121-.106-.712.713-1.392,1.389-2.05,2.03s-1.168,1.121-1.513,1.453-1.126,1.09-2.334,2.261-2.076,2.029-2.606,2.56q1.124,1.292,2.242,2.534t2.29,2.543q1.164,1.3,2.279,2.627t2.015,2.512v.159c-.163-.018-.4-.036-.721-.054s-.559-.033-.722-.051c-1.054.068-1.59.1-1.607.1a23.871,23.871,0,0,0-1.439-1.993q-.858-1.076-2-2.406c-.763-.885-1.486-1.72-2.175-2.516S341.7,321.51,341.281,321c-.4-.472-.677-.7-.845-.7h-.114v9.581c-.141-.018-.345-.036-.608-.054s-.469-.033-.613-.051c-.119.018-.3.035-.568.051s-.463.036-.6.054" transform="translate(-212.856 -196.015)" fill="#fff"/><path d="M271.042,319.863a10.211,10.211,0,0,1,1.185-4.808,9.052,9.052,0,0,1,3.423-3.618,9.911,9.911,0,0,1,5.226-1.358h.218a13.312,13.312,0,0,1,4.622.844,9.112,9.112,0,0,1,3.233,2.089,8.345,8.345,0,0,1,1.867,2.951,9.941,9.941,0,0,1,.6,3.459,10.844,10.844,0,0,1-.785,4.223,9.037,9.037,0,0,1-2.211,3.2,9.618,9.618,0,0,1-3.3,1.993,11.641,11.641,0,0,1-3.978.672h-.113a12.462,12.462,0,0,1-4.813-1,8.255,8.255,0,0,1-3.673-3.12,10.187,10.187,0,0,1-1.508-5.526m2.665.109a10.529,10.529,0,0,0,.94,4.65,6.636,6.636,0,0,0,2.629,2.924,7.9,7.9,0,0,0,3.923,1.036,6.828,6.828,0,0,0,3.664-1.059,7.719,7.719,0,0,0,2.752-3.005,10.146,10.146,0,0,0,1.14-4.441q0-.123.014-.35c.009-.15,0-.33,0-.416a9.689,9.689,0,0,0-.912-4.41,6.651,6.651,0,0,0-2.606-2.852,8.112,8.112,0,0,0-3.882-1.071,7.063,7.063,0,0,0-4.282,1.257,7.41,7.41,0,0,0-2.552,3.315,11.748,11.748,0,0,0-.827,4.421" transform="translate(-170.724 -195.313)" fill="#fff"/><path d="M199.449,329.873q-3.113-10.305-5.939-18.68c.146.013.354.027.622.05s.468.036.6.055c.127-.019.336-.037.631-.055s.522-.038.677-.05q2.934,10.254,4.69,15.66h.272q3.644-10.476,5.254-15.66a4.888,4.888,0,0,1,.818.106c.1-.019.235-.037.4-.055s.3-.038.386-.05l5.176,15.66h.245q2.255-6.648,4.9-15.66c.1.018.236.037.409.05a3.758,3.758,0,0,1,.381.055c.127-.024.318-.042.563-.06s.436-.033.554-.046q-.469,1.123-1.063,2.774t-1.689,4.923q-1.1,3.274-2.021,5.971t-1.765,5.012a4.268,4.268,0,0,0-.432-.054c-.2-.015-.354-.033-.467-.051-.1.018-.254.035-.459.051a4.477,4.477,0,0,0-.445.054L206.8,314.536h-.218q-.654,1.92-1.412,4.146t-1.3,3.819c-.363,1.058-.826,2.411-1.4,4.064s-.953,2.751-1.144,3.309c-.11-.018-.269-.036-.473-.054s-.372-.033-.486-.051a4.354,4.354,0,0,1-.445.051c-.2.017-.363.036-.482.054" transform="translate(-121.888 -196.015)" fill="#fff"/><path d="M140.992,311.195h8.659a8.153,8.153,0,0,1,5.244,1.5,7.3,7.3,0,0,1,2.493,3.405,11.48,11.48,0,0,1,.627,3.563,13.176,13.176,0,0,1-.45,3.365,9.63,9.63,0,0,1-1.58,3.256,8.144,8.144,0,0,1-3.165,2.515,11.6,11.6,0,0,1-5.017.971h-6.811Zm2.393,1.108v16.239q2.615.16,4.418.161a8.361,8.361,0,0,0,4.1-1.1,6.408,6.408,0,0,0,2.534-2.928,11.174,11.174,0,0,0,.854-4.577,10.566,10.566,0,0,0-.754-4.413,4.983,4.983,0,0,0-1.971-2.3,7.548,7.548,0,0,0-2.846-1.007c-.3-.041-1.089-.11-1.769-.132s-2.245-.03-2.979,0c-.659.027-1.259.049-1.586.058" transform="translate(-88.808 -196.016)" fill="#fff"/><path d="M83.6,329.172,92.1,310.079h.659l8.173,19.093c-.222,0-.749-.037-1.585-.1-.14.018-.35.036-.631.051s-.494.036-.645.054q-1.239-3.657-2.892-7.4H88.282c-.408,1.03-.777,1.97-1.108,2.811s-.64,1.647-.917,2.419-.508,1.494-.7,2.175c-.11-.018-.273-.037-.494-.054s-.39-.033-.513-.051c-.105.014-.268.027-.49.051a4.064,4.064,0,0,0-.459.054m5.2-8.522H94.77L91.715,313.7Z" transform="translate(-52.659 -195.313)" fill="#fff"/><path d="M223.551,405.583v8.578c-.141-.019-.345-.037-.6-.055s-.467-.032-.617-.051c-.145.018-.354.037-.618.051s-.472.037-.613.055V395.48h6.08a10.46,10.46,0,0,1,3.455.513,3.383,3.383,0,0,1,1.839,1.444,4.929,4.929,0,0,1,.563,2.507,5.327,5.327,0,0,1-.64,2.724,4.983,4.983,0,0,1-1.911,1.806,8.957,8.957,0,0,1-3.153,1.033c-.849.108-3.5.077-3.781.077m0-9.035v7.968h2.424a4.647,4.647,0,0,0,3.416-1.372,4.22,4.22,0,0,0,1.139-3.029,3.8,3.8,0,0,0-.763-2.442,3.071,3.071,0,0,0-2.315-1.072c-.436-.036-1.271-.053-2.511-.053Zm36.7,17.507V395.48c.128.018.3.035.519.05s.381.036.486.054c.154-.018.381-.036.681-.054s.536-.036.708-.05V412.77a5.657,5.657,0,0,1,.845.058c1.022-.034,2.189-.094,3.509-.18s2.366-.168,3.134-.259c-.014.1-.027.259-.051.459s-.036.362-.054.467a6.94,6.94,0,0,1,.105.739Zm13.813-13.893a4.934,4.934,0,0,1,.972-2.952,5.06,5.06,0,0,1,2.239-1.644,7.934,7.934,0,0,1,2.783-.5,6.663,6.663,0,0,1,2.279.387,4.715,4.715,0,0,1,1.672.953q-.15.314-.767,2.235H283a4.25,4.25,0,0,0-1.176-1.658,3.21,3.21,0,0,0-2.234-.744,3.674,3.674,0,0,0-1.752.418,3.128,3.128,0,0,0-1.217,1.138,2.947,2.947,0,0,0-.44,1.577,3.643,3.643,0,0,0,2.53,3.461l2.837,1.175a5.462,5.462,0,0,1,2.385,1.68,4.572,4.572,0,0,1,.807,2.843,5.566,5.566,0,0,1-.812,2.855,6.206,6.206,0,0,1-2.38,2.244,7.473,7.473,0,0,1-3.678.867,7.98,7.98,0,0,1-2.448-.5,5.189,5.189,0,0,1-1.852-1.1,10.459,10.459,0,0,0,.517-2.456h.272a5.847,5.847,0,0,0,2.021,2.247,6.024,6.024,0,0,0,2.2.64,3.856,3.856,0,0,0,2.024-.55,3.954,3.954,0,0,0,1.44-1.457,3.717,3.717,0,0,0-2.148-5.457l-2.7-1.117a5.153,5.153,0,0,1-2.035-1.331,3.86,3.86,0,0,1-.9-1.593,6.805,6.805,0,0,1-.2-1.657m15.079,14V395.48q.136,0,1.117.1c.131-.018.34-.036.627-.054s.5-.036.648-.05v8.463a.2.2,0,0,0,.141.063q.443,0,2.316-1.962l6.374-6.565a5.46,5.46,0,0,1,1.009.1c.659-.069,1.03-.1,1.123-.1-.715.712-1.4,1.389-2.053,2.03s-1.168,1.121-1.512,1.452-1.128,1.09-2.335,2.261-2.075,2.03-2.606,2.561q1.124,1.294,2.244,2.533t2.288,2.543q1.163,1.3,2.278,2.628T302.817,414v.16c-.162-.019-.4-.037-.721-.055s-.559-.032-.722-.051c-1.053.068-1.59.106-1.607.106a23.66,23.66,0,0,0-1.439-1.993c-.572-.718-1.239-1.523-2-2.406s-1.485-1.721-2.176-2.517-1.239-1.447-1.662-1.96c-.395-.473-.676-.7-.844-.7h-.114v9.581c-.14-.019-.345-.037-.609-.055s-.467-.032-.611-.051c-.119.018-.305.037-.569.051s-.463.037-.6.055m15.779,0,8.5-19.094h.658l8.173,19.094c-.222,0-.749-.037-1.584-.106-.141.018-.35.037-.631.051s-.495.037-.645.055q-1.238-3.658-2.892-7.406H309.6c-.409,1.03-.776,1.97-1.109,2.81s-.639,1.648-.916,2.42-.509,1.494-.7,2.176c-.109-.019-.274-.037-.494-.055s-.392-.032-.515-.051c-.1.013-.267.029-.489.051a3.927,3.927,0,0,0-.459.055m5.2-8.523h5.967l-3.056-6.95Z" transform="translate(-139.266 -248.845)" fill="#fff"/><path d="M319,162.651l-7.676.009-.037-26.946a15.782,15.782,0,0,0-.949-5.866,6.915,6.915,0,0,0-2.807-3.439c2.942.572,4.819,1.778,5.857,3.3,1.056,1.541,1.762,4.327,1.762,8.341v15.665c0,2.664.364,4.586,1.109,5.729a4.773,4.773,0,0,0,2.743,1.816c.007-6.017.005-12.922-.03-19.4-.05-9.048.527-17.342-2.178-20.326a7.7,7.7,0,0,0-4.211-2.117v1.817c-2.356-2.089-.338-5.547,2.68-5.241,3.665-3.162,9.845-1.362,12.488,2.226,2.072,2.161,2.7,6.907,2.7,12.329l-.01,30.749a4.764,4.764,0,0,0,2.744-1.818c.745-1.141,1.108-3.063,1.108-5.729V138.087c0-4.017.52-6.82,1.575-8.359,1-1.463,2.947-2.5,5.7-3.081v.162a7.48,7.48,0,0,0-2.65,3.057,16.677,16.677,0,0,0-.762,5.884l-.043,26.93h-7.673l0,11.344h-3.853c.019-7.367.008-46.24,0-46.238-.275-5.835-1.324-9.2-5.437-10.309a6.831,6.831,0,0,0-4.729.451c5.185,1.366,6.4,5.936,6.39,15.1l-.037,40.993h-3.786c0-2.75.014-6.754.02-11.373" transform="translate(-193.711 -72.032)" fill="#fff"/><path d="M408.035,163.367a11.9,11.9,0,0,0,8.884-3.391c2.288-2.254,3.428-6.483,3.428-9.639a10.99,10.99,0,0,0-2.8-7.4,9.057,9.057,0,0,0-6.862-3.282c-.193-.01-.347-.033-.519-.032q-9.566.08-9.576,10.784l-.053,28.23,10.268.035s-.133-1.067-.16-1.07c-4.942-.605-5.991-3.148-6.092-6.929l-.047-7.82v.043a13.985,13.985,0,0,0,3.531.469m-3.6-12.162a10.309,10.309,0,0,1,1.5-5.987c2.141-2.878,6.017-2.573,8.23-.111a7.361,7.361,0,0,1,1.916,5.122c0,2.218-.768,5.709-2.292,7.44a8.192,8.192,0,0,1-6.384,2.525,24.435,24.435,0,0,1-2.926-.229Z" transform="translate(-252.29 -87.948)" fill="#fff"/><path d="M268.033,155.4,268,149.092c-.548-4.592-3.611-6.376-9.05-5.7-3.751.468-7.284,4.314-7.05,3.524.787-2.666,1.075-3.842,2.026-4.977,1.644-1.962,4.942-2.219,6.367-2.289,6.84-.336,11.719,3.019,12.14,10.423L272.4,178.6h-4.3l.011-1.42a10.411,10.411,0,0,1-5.735,1.492c-.173,0-.325-.021-.519-.032a9.055,9.055,0,0,1-6.862-3.281,10.991,10.991,0,0,1-2.8-7.395c0-3.156,1.139-7.386,3.427-9.641a11.906,11.906,0,0,1,8.885-3.39,13.928,13.928,0,0,1,3.529.469m.017,2.933a24.207,24.207,0,0,0-2.926-.228,8.2,8.2,0,0,0-6.383,2.525c-2.737,3.106-3.254,9.4-.378,12.563,2.214,2.462,6.09,2.766,8.231-.112a10.154,10.154,0,0,0,1.506-5.8v-.471Z" transform="translate(-158.658 -87.952)" fill="#fff"/><path d="M354.1,101.7c.057-.207.119-.451.2-.767.388-1.588.12-4.861-1.3-6.325a9.965,9.965,0,0,1,.056,5.527,9.779,9.779,0,0,1-.515,1.539,10.663,10.663,0,0,1,1.349.658,9.107,9.107,0,0,1,1.256.876c.008-.049.018-.1.022-.12a9.841,9.841,0,0,1,.307-1.12,9.069,9.069,0,0,1,3.067-4.358A6.233,6.233,0,0,0,354.1,101.7" transform="translate(-222.059 -59.594)" fill="#fff" fill-rule="evenodd"/><path d="M338.287,99.518c-.044.18-.079.328-.108.453a6.408,6.408,0,0,0-2.966-3.859,9.44,9.44,0,0,1,1.808,4.793,8.572,8.572,0,0,1,1.206,0,10.233,10.233,0,0,1,1.259.155,9.994,9.994,0,0,1,.256-1.6,9.457,9.457,0,0,1,2.344-4.847c-1.912.551-3.451,3.484-3.8,4.907" transform="translate(-211.145 -59.594)" fill="#fff" fill-rule="evenodd"/><path d="M261.073,404.852a10.211,10.211,0,0,1,1.185-4.808,9.064,9.064,0,0,1,3.423-3.618,9.9,9.9,0,0,1,5.226-1.358h.219a13.275,13.275,0,0,1,4.621.844A9.131,9.131,0,0,1,278.981,398a8.34,8.34,0,0,1,1.867,2.952,9.934,9.934,0,0,1,.6,3.459,10.845,10.845,0,0,1-.785,4.223,9.048,9.048,0,0,1-2.211,3.2,9.617,9.617,0,0,1-3.3,1.993,11.655,11.655,0,0,1-3.977.672h-.113a12.468,12.468,0,0,1-4.813-1,8.252,8.252,0,0,1-3.673-3.119,10.2,10.2,0,0,1-1.508-5.527m2.665.109a10.52,10.52,0,0,0,.94,4.649,6.634,6.634,0,0,0,2.629,2.925,7.889,7.889,0,0,0,3.923,1.036,6.828,6.828,0,0,0,3.664-1.059,7.72,7.72,0,0,0,2.751-3,10.136,10.136,0,0,0,1.14-4.442c0-.081,0-.2.014-.348s0-.331,0-.416a9.684,9.684,0,0,0-.913-4.41,6.659,6.659,0,0,0-2.606-2.853,8.129,8.129,0,0,0-3.882-1.07,7.062,7.062,0,0,0-4.282,1.257,7.409,7.409,0,0,0-2.552,3.315,11.749,11.749,0,0,0-.827,4.422" transform="translate(-164.445 -248.846)" fill="#fff"/></g></svg>