<svg xmlns="http://www.w3.org/2000/svg" xmlns:xlink="http://www.w3.org/1999/xlink" width="181.905" height="181.905" viewBox="0 0 181.905 181.905"><defs><filter id="a" x="0" y="0" width="181.905" height="181.905" filterUnits="userSpaceOnUse"><feOffset input="SourceAlpha"/><feGaussianBlur stdDeviation="7.5" result="b"/><feFlood flood-opacity="0.627"/><feComposite operator="in" in2="b"/><feComposite in="SourceGraphic"/></filter></defs><g transform="matrix(1, 0, 0, 1, 0, 0)" filter="url(#a)"><path d="M108.388,71.484,59.809,41.95a6.636,6.636,0,0,0-9.854,5.8v57.412a6.64,6.64,0,0,0,9.854,5.8l48.579-27.878A6.646,6.646,0,0,0,108.388,71.484Zm36.517,4.968a68.453,68.453,0,1,0-68.453,68.453A68.441,68.441,0,0,0,144.905,76.453Zm-123.656,0a55.2,55.2,0,1,1,55.2,55.2A55.188,55.188,0,0,1,21.249,76.453Z" transform="translate(14.5 14.5)" fill="#fff"/></g></svg>